<svg id="Layer_1" data-name="Layer 1" xmlns="http://www.w3.org/2000/svg" viewBox="0 0 1656.272 1258.771"><defs><style>.cls-1{fill:#a3d7ee;}</style></defs><title>Untitled-1</title><path class="cls-1" d="M352.716,112.831a37.113,37.113,0,1,1,37.113-37.113A37.155,37.155,0,0,1,352.716,112.831Zm0-63.559a26.446,26.446,0,1,0,26.445,26.446A26.475,26.475,0,0,0,352.716,49.273Z" transform="translate(762.926 777.449)"/><path class="cls-1" d="M239.505,187.45a37.113,37.113,0,1,1,37.113-37.113A37.155,37.155,0,0,1,239.505,187.45Zm0-63.559a26.446,26.446,0,1,0,26.445,26.446A26.475,26.475,0,0,0,239.505,123.891Z" transform="translate(762.926 777.449)"/><path class="cls-1" d="M126.4,104.344a37.113,37.113,0,1,1,37.113-37.113A37.155,37.155,0,0,1,126.4,104.344Zm0-63.559a26.446,26.446,0,1,0,26.445,26.446A26.475,26.475,0,0,0,126.4,40.786Z" transform="translate(762.926 777.449)"/><path class="cls-1" d="M227.7,384.555a37.113,37.113,0,1,1,37.113-37.113A37.155,37.155,0,0,1,227.7,384.555Zm0-63.559a26.446,26.446,0,1,0,26.445,26.446A26.475,26.475,0,0,0,227.7,321Z" transform="translate(762.926 777.449)"/><path class="cls-1" d="M395.268,276.45a37.113,37.113,0,1,1,37.113-37.113A37.155,37.155,0,0,1,395.268,276.45Zm0-63.559a26.446,26.446,0,1,0,26.445,26.446A26.475,26.475,0,0,0,395.268,212.891Z" transform="translate(762.926 777.449)"/><path class="cls-1" d="M81.755,254.424a37.113,37.113,0,1,1,37.113-37.113A37.155,37.155,0,0,1,81.755,254.424Zm0-63.559A26.446,26.446,0,1,0,108.2,217.311,26.475,26.475,0,0,0,81.755,190.865Z" transform="translate(762.926 777.449)"/><ellipse class="cls-1" cx="1006.987" cy="939.183" rx="76.099" ry="74.119"/><path class="cls-1" d="M738.026,31.9A37.155,37.155,0,0,1,700.912-5.214a37.155,37.155,0,0,1,37.113-37.113A37.155,37.155,0,0,1,775.139-5.214,37.155,37.155,0,0,1,738.026,31.9Zm0-63.559A26.475,26.475,0,0,0,711.581-5.214a26.475,26.475,0,0,0,26.445,26.446A26.475,26.475,0,0,0,764.471-5.214,26.475,26.475,0,0,0,738.026-31.66Z" transform="translate(762.926 777.449)"/><path class="cls-1" d="M624.815,106.517A37.113,37.113,0,1,1,661.928,69.4,37.155,37.155,0,0,1,624.815,106.517Zm0-63.559A26.446,26.446,0,1,0,651.26,69.4,26.475,26.475,0,0,0,624.815,42.958Z" transform="translate(762.926 777.449)"/><path class="cls-1" d="M511.71,23.412A37.155,37.155,0,0,1,474.6-13.7,37.155,37.155,0,0,1,511.71-50.814,37.155,37.155,0,0,1,548.823-13.7,37.155,37.155,0,0,1,511.71,23.412Zm0-63.559A26.475,26.475,0,0,0,485.264-13.7,26.475,26.475,0,0,0,511.71,12.745,26.475,26.475,0,0,0,538.155-13.7,26.475,26.475,0,0,0,511.71-40.147Z" transform="translate(762.926 777.449)"/><path class="cls-1" d="M613.012,303.623a37.113,37.113,0,1,1,37.113-37.113A37.155,37.155,0,0,1,613.012,303.623Zm0-63.559a26.446,26.446,0,1,0,26.445,26.446A26.475,26.475,0,0,0,613.012,240.064Z" transform="translate(762.926 777.449)"/><path class="cls-1" d="M780.578,195.517A37.113,37.113,0,1,1,817.692,158.4,37.155,37.155,0,0,1,780.578,195.517Zm0-63.559A26.446,26.446,0,1,0,807.024,158.4,26.475,26.475,0,0,0,780.578,131.959Z" transform="translate(762.926 777.449)"/><path class="cls-1" d="M467.065,173.491a37.113,37.113,0,1,1,37.113-37.113A37.155,37.155,0,0,1,467.065,173.491Zm0-63.559a26.446,26.446,0,1,0,26.445,26.446A26.475,26.475,0,0,0,467.065,109.932Z" transform="translate(762.926 777.449)"/><ellipse class="cls-1" cx="1392.297" cy="858.251" rx="76.099" ry="74.119"/><path class="cls-1" d="M357.994-305.907a37.155,37.155,0,0,1-37.113-37.113,37.155,37.155,0,0,1,37.113-37.113,37.155,37.155,0,0,1,37.113,37.113A37.155,37.155,0,0,1,357.994-305.907Zm0-63.559a26.475,26.475,0,0,0-26.445,26.446,26.475,26.475,0,0,0,26.445,26.446,26.475,26.475,0,0,0,26.445-26.446A26.475,26.475,0,0,0,357.994-369.466Z" transform="translate(762.926 777.449)"/><path class="cls-1" d="M244.783-231.289A37.155,37.155,0,0,1,207.67-268.4a37.155,37.155,0,0,1,37.113-37.113A37.155,37.155,0,0,1,281.9-268.4,37.155,37.155,0,0,1,244.783-231.289Zm0-63.559A26.475,26.475,0,0,0,218.338-268.4a26.475,26.475,0,0,0,26.445,26.446A26.475,26.475,0,0,0,271.228-268.4,26.475,26.475,0,0,0,244.783-294.848Z" transform="translate(762.926 777.449)"/><path class="cls-1" d="M131.678-314.394a37.155,37.155,0,0,1-37.113-37.113,37.155,37.155,0,0,1,37.113-37.113,37.155,37.155,0,0,1,37.113,37.113A37.155,37.155,0,0,1,131.678-314.394Zm0-63.559a26.475,26.475,0,0,0-26.445,26.446,26.475,26.475,0,0,0,26.445,26.446,26.475,26.475,0,0,0,26.445-26.446A26.475,26.475,0,0,0,131.678-377.953Z" transform="translate(762.926 777.449)"/><path class="cls-1" d="M232.981-34.183A37.155,37.155,0,0,1,195.867-71.3a37.155,37.155,0,0,1,37.113-37.113A37.155,37.155,0,0,1,270.094-71.3,37.155,37.155,0,0,1,232.981-34.183Zm0-63.559A26.475,26.475,0,0,0,206.535-71.3a26.475,26.475,0,0,0,26.445,26.446A26.475,26.475,0,0,0,259.426-71.3,26.475,26.475,0,0,0,232.981-97.742Z" transform="translate(762.926 777.449)"/><path class="cls-1" d="M400.547-142.289A37.155,37.155,0,0,1,363.433-179.4a37.155,37.155,0,0,1,37.113-37.113A37.155,37.155,0,0,1,437.66-179.4,37.155,37.155,0,0,1,400.547-142.289Zm0-63.559A26.475,26.475,0,0,0,374.1-179.4a26.475,26.475,0,0,0,26.445,26.446A26.475,26.475,0,0,0,426.992-179.4,26.475,26.475,0,0,0,400.547-205.847Z" transform="translate(762.926 777.449)"/><path class="cls-1" d="M87.033-164.315A37.155,37.155,0,0,1,49.92-201.428a37.155,37.155,0,0,1,37.113-37.113,37.155,37.155,0,0,1,37.113,37.113A37.155,37.155,0,0,1,87.033-164.315Zm0-63.559a26.475,26.475,0,0,0-26.445,26.446,26.475,26.475,0,0,0,26.445,26.446,26.475,26.475,0,0,0,26.445-26.446A26.475,26.475,0,0,0,87.033-227.874Z" transform="translate(762.926 777.449)"/><ellipse class="cls-1" cx="1012.265" cy="520.445" rx="76.099" ry="74.119"/><path class="cls-1" d="M813.68-367.487A37.155,37.155,0,0,1,776.567-404.6a37.155,37.155,0,0,1,37.113-37.113A37.155,37.155,0,0,1,850.794-404.6,37.155,37.155,0,0,1,813.68-367.487Zm0-63.559A26.475,26.475,0,0,0,787.235-404.6a26.475,26.475,0,0,0,26.445,26.446A26.475,26.475,0,0,0,840.125-404.6,26.475,26.475,0,0,0,813.68-431.045Z" transform="translate(762.926 777.449)"/><path class="cls-1" d="M700.469-292.868a37.155,37.155,0,0,1-37.113-37.113,37.155,37.155,0,0,1,37.113-37.113,37.155,37.155,0,0,1,37.113,37.113A37.155,37.155,0,0,1,700.469-292.868Zm0-63.559a26.475,26.475,0,0,0-26.445,26.446,26.475,26.475,0,0,0,26.445,26.446,26.475,26.475,0,0,0,26.445-26.446A26.475,26.475,0,0,0,700.469-356.427Z" transform="translate(762.926 777.449)"/><path class="cls-1" d="M587.364-375.973a37.155,37.155,0,0,1-37.113-37.113A37.155,37.155,0,0,1,587.364-450.2a37.155,37.155,0,0,1,37.113,37.113A37.155,37.155,0,0,1,587.364-375.973Zm0-63.559a26.475,26.475,0,0,0-26.445,26.446,26.475,26.475,0,0,0,26.445,26.446,26.475,26.475,0,0,0,26.445-26.446A26.475,26.475,0,0,0,587.364-439.532Z" transform="translate(762.926 777.449)"/><path class="cls-1" d="M688.667-95.763a37.155,37.155,0,0,1-37.113-37.113,37.155,37.155,0,0,1,37.113-37.113,37.155,37.155,0,0,1,37.113,37.113A37.155,37.155,0,0,1,688.667-95.763Zm0-63.559a26.475,26.475,0,0,0-26.445,26.446,26.475,26.475,0,0,0,26.445,26.446,26.475,26.475,0,0,0,26.445-26.446A26.475,26.475,0,0,0,688.667-159.321Z" transform="translate(762.926 777.449)"/><path class="cls-1" d="M856.233-203.868a37.155,37.155,0,0,1-37.113-37.113,37.155,37.155,0,0,1,37.113-37.113,37.155,37.155,0,0,1,37.113,37.113A37.155,37.155,0,0,1,856.233-203.868Zm0-63.559a26.475,26.475,0,0,0-26.445,26.446,26.475,26.475,0,0,0,26.445,26.446,26.475,26.475,0,0,0,26.445-26.446A26.475,26.475,0,0,0,856.233-267.427Z" transform="translate(762.926 777.449)"/><path class="cls-1" d="M542.719-225.894a37.155,37.155,0,0,1-37.113-37.113,37.155,37.155,0,0,1,37.113-37.113,37.155,37.155,0,0,1,37.113,37.113A37.155,37.155,0,0,1,542.719-225.894Zm0-63.559a26.475,26.475,0,0,0-26.445,26.446,26.475,26.475,0,0,0,26.445,26.446,26.475,26.475,0,0,0,26.445-26.446A26.475,26.475,0,0,0,542.719-289.453Z" transform="translate(762.926 777.449)"/><ellipse class="cls-1" cx="1467.952" cy="458.865" rx="76.099" ry="74.119"/><path class="cls-1" d="M565.6-694.736a37.155,37.155,0,0,1-37.113-37.113A37.155,37.155,0,0,1,565.6-768.962a37.155,37.155,0,0,1,37.113,37.113A37.155,37.155,0,0,1,565.6-694.736Zm0-63.559a26.475,26.475,0,0,0-26.445,26.446A26.475,26.475,0,0,0,565.6-705.4a26.475,26.475,0,0,0,26.445-26.446A26.475,26.475,0,0,0,565.6-758.295Z" transform="translate(762.926 777.449)"/><path class="cls-1" d="M452.393-620.118a37.155,37.155,0,0,1-37.113-37.113,37.155,37.155,0,0,1,37.113-37.113,37.155,37.155,0,0,1,37.113,37.113A37.155,37.155,0,0,1,452.393-620.118Zm0-63.559a26.475,26.475,0,0,0-26.445,26.446,26.475,26.475,0,0,0,26.445,26.446,26.475,26.475,0,0,0,26.445-26.446A26.475,26.475,0,0,0,452.393-683.676Z" transform="translate(762.926 777.449)"/><path class="cls-1" d="M339.288-703.223a37.155,37.155,0,0,1-37.113-37.113,37.155,37.155,0,0,1,37.113-37.113A37.155,37.155,0,0,1,376.4-740.336,37.155,37.155,0,0,1,339.288-703.223Zm0-63.559a26.475,26.475,0,0,0-26.445,26.446,26.475,26.475,0,0,0,26.445,26.446,26.475,26.475,0,0,0,26.445-26.446A26.475,26.475,0,0,0,339.288-766.782Z" transform="translate(762.926 777.449)"/><path class="cls-1" d="M440.59-423.012a37.155,37.155,0,0,1-37.113-37.113,37.155,37.155,0,0,1,37.113-37.113A37.155,37.155,0,0,1,477.7-460.125,37.155,37.155,0,0,1,440.59-423.012Zm0-63.559a26.475,26.475,0,0,0-26.445,26.446,26.475,26.475,0,0,0,26.445,26.446,26.475,26.475,0,0,0,26.445-26.446A26.475,26.475,0,0,0,440.59-486.571Z" transform="translate(762.926 777.449)"/><path class="cls-1" d="M608.157-531.117a37.155,37.155,0,0,1-37.113-37.113,37.155,37.155,0,0,1,37.113-37.113A37.155,37.155,0,0,1,645.27-568.23,37.155,37.155,0,0,1,608.157-531.117Zm0-63.559a26.475,26.475,0,0,0-26.445,26.446,26.475,26.475,0,0,0,26.445,26.446A26.475,26.475,0,0,0,634.6-568.23,26.475,26.475,0,0,0,608.157-594.676Z" transform="translate(762.926 777.449)"/><path class="cls-1" d="M294.643-553.144a37.155,37.155,0,0,1-37.113-37.113,37.155,37.155,0,0,1,37.113-37.113,37.155,37.155,0,0,1,37.113,37.113A37.155,37.155,0,0,1,294.643-553.144Zm0-63.559A26.475,26.475,0,0,0,268.2-590.257a26.475,26.475,0,0,0,26.445,26.446,26.475,26.475,0,0,0,26.445-26.446A26.475,26.475,0,0,0,294.643-616.7Z" transform="translate(762.926 777.449)"/><ellipse class="cls-1" cx="1219.875" cy="131.616" rx="76.099" ry="74.119"/><path class="cls-1" d="M118.715-685.939A37.155,37.155,0,0,1,81.6-723.052a37.155,37.155,0,0,1,37.113-37.113,37.155,37.155,0,0,1,37.113,37.113A37.155,37.155,0,0,1,118.715-685.939Zm0-63.559A26.475,26.475,0,0,0,92.27-723.052a26.475,26.475,0,0,0,26.445,26.446,26.475,26.475,0,0,0,26.445-26.446A26.475,26.475,0,0,0,118.715-749.5Z" transform="translate(762.926 777.449)"/><path class="cls-1" d="M5.5-611.321a37.155,37.155,0,0,1-37.113-37.113A37.155,37.155,0,0,1,5.5-685.546a37.155,37.155,0,0,1,37.113,37.113A37.155,37.155,0,0,1,5.5-611.321Zm0-63.559a26.475,26.475,0,0,0-26.445,26.446A26.475,26.475,0,0,0,5.5-621.988a26.475,26.475,0,0,0,26.445-26.446A26.475,26.475,0,0,0,5.5-674.879Z" transform="translate(762.926 777.449)"/><path class="cls-1" d="M-107.6-694.426a37.155,37.155,0,0,1-37.113-37.113A37.155,37.155,0,0,1-107.6-768.652a37.155,37.155,0,0,1,37.113,37.113A37.155,37.155,0,0,1-107.6-694.426Zm0-63.559a26.475,26.475,0,0,0-26.445,26.446A26.475,26.475,0,0,0-107.6-705.093a26.475,26.475,0,0,0,26.445-26.446A26.475,26.475,0,0,0-107.6-757.985Z" transform="translate(762.926 777.449)"/><path class="cls-1" d="M-6.3-414.215a37.155,37.155,0,0,1-37.113-37.113A37.155,37.155,0,0,1-6.3-488.441a37.155,37.155,0,0,1,37.113,37.113A37.155,37.155,0,0,1-6.3-414.215Zm0-63.559a26.475,26.475,0,0,0-26.445,26.446A26.475,26.475,0,0,0-6.3-424.882a26.475,26.475,0,0,0,26.445-26.446A26.475,26.475,0,0,0-6.3-477.774Z" transform="translate(762.926 777.449)"/><path class="cls-1" d="M161.267-522.32a37.155,37.155,0,0,1-37.113-37.113,37.155,37.155,0,0,1,37.113-37.113,37.155,37.155,0,0,1,37.113,37.113A37.155,37.155,0,0,1,161.267-522.32Zm0-63.559a26.475,26.475,0,0,0-26.445,26.446,26.475,26.475,0,0,0,26.445,26.446,26.475,26.475,0,0,0,26.445-26.446A26.475,26.475,0,0,0,161.267-585.879Z" transform="translate(762.926 777.449)"/><path class="cls-1" d="M-152.246-544.347A37.155,37.155,0,0,1-189.36-581.46a37.155,37.155,0,0,1,37.113-37.113,37.155,37.155,0,0,1,37.113,37.113A37.155,37.155,0,0,1-152.246-544.347Zm0-63.559a26.475,26.475,0,0,0-26.445,26.446,26.475,26.475,0,0,0,26.445,26.446A26.475,26.475,0,0,0-125.8-581.46,26.475,26.475,0,0,0-152.246-607.905Z" transform="translate(762.926 777.449)"/><ellipse class="cls-1" cx="772.986" cy="140.413" rx="76.099" ry="74.119"/><path class="cls-1" d="M-64.263-256.644a37.155,37.155,0,0,1-37.113-37.113A37.155,37.155,0,0,1-64.263-330.87,37.155,37.155,0,0,1-27.15-293.757,37.155,37.155,0,0,1-64.263-256.644Zm0-63.559a26.475,26.475,0,0,0-26.445,26.446,26.475,26.475,0,0,0,26.445,26.446,26.475,26.475,0,0,0,26.445-26.446A26.475,26.475,0,0,0-64.263-320.2Z" transform="translate(762.926 777.449)"/><path class="cls-1" d="M-177.474-182.026a37.155,37.155,0,0,1-37.113-37.113,37.155,37.155,0,0,1,37.113-37.113,37.155,37.155,0,0,1,37.113,37.113A37.155,37.155,0,0,1-177.474-182.026Zm0-63.559a26.475,26.475,0,0,0-26.445,26.446,26.475,26.475,0,0,0,26.445,26.446,26.475,26.475,0,0,0,26.445-26.446A26.475,26.475,0,0,0-177.474-245.584Z" transform="translate(762.926 777.449)"/><path class="cls-1" d="M-290.58-265.131a37.155,37.155,0,0,1-37.113-37.113,37.155,37.155,0,0,1,37.113-37.113,37.155,37.155,0,0,1,37.113,37.113A37.155,37.155,0,0,1-290.58-265.131Zm0-63.559a26.475,26.475,0,0,0-26.445,26.446A26.475,26.475,0,0,0-290.58-275.8a26.475,26.475,0,0,0,26.445-26.446A26.475,26.475,0,0,0-290.58-328.689Z" transform="translate(762.926 777.449)"/><path class="cls-1" d="M-189.277,15.08A37.155,37.155,0,0,1-226.39-22.033a37.155,37.155,0,0,1,37.113-37.113,37.155,37.155,0,0,1,37.113,37.113A37.155,37.155,0,0,1-189.277,15.08Zm0-63.559a26.475,26.475,0,0,0-26.445,26.446A26.475,26.475,0,0,0-189.277,4.413a26.475,26.475,0,0,0,26.445-26.446A26.475,26.475,0,0,0-189.277-48.479Z" transform="translate(762.926 777.449)"/><path class="cls-1" d="M-21.711-93.025a37.155,37.155,0,0,1-37.113-37.113,37.155,37.155,0,0,1,37.113-37.113A37.155,37.155,0,0,1,15.4-130.138,37.155,37.155,0,0,1-21.711-93.025Zm0-63.559a26.475,26.475,0,0,0-26.445,26.446,26.475,26.475,0,0,0,26.445,26.446A26.475,26.475,0,0,0,4.734-130.138,26.475,26.475,0,0,0-21.711-156.584Z" transform="translate(762.926 777.449)"/><path class="cls-1" d="M-335.224-115.052a37.155,37.155,0,0,1-37.113-37.113,37.155,37.155,0,0,1,37.113-37.113,37.155,37.155,0,0,1,37.113,37.113A37.155,37.155,0,0,1-335.224-115.052Zm0-63.559a26.475,26.475,0,0,0-26.445,26.446,26.475,26.475,0,0,0,26.445,26.446,26.475,26.475,0,0,0,26.445-26.446A26.475,26.475,0,0,0-335.224-178.61Z" transform="translate(762.926 777.449)"/><ellipse class="cls-1" cx="590.008" cy="569.708" rx="76.099" ry="74.119"/><path class="cls-1" d="M-338.731-654.27a37.155,37.155,0,0,1-37.113-37.113A37.155,37.155,0,0,1-338.731-728.5a37.155,37.155,0,0,1,37.113,37.113A37.155,37.155,0,0,1-338.731-654.27Zm0-63.559a26.475,26.475,0,0,0-26.445,26.446,26.475,26.475,0,0,0,26.445,26.446,26.475,26.475,0,0,0,26.445-26.446A26.475,26.475,0,0,0-338.731-717.828Z" transform="translate(762.926 777.449)"/><path class="cls-1" d="M-451.942-579.651a37.155,37.155,0,0,1-37.113-37.113,37.155,37.155,0,0,1,37.113-37.113,37.155,37.155,0,0,1,37.113,37.113A37.155,37.155,0,0,1-451.942-579.651Zm0-63.559a26.475,26.475,0,0,0-26.445,26.446,26.475,26.475,0,0,0,26.445,26.446A26.475,26.475,0,0,0-425.5-616.764,26.475,26.475,0,0,0-451.942-643.21Z" transform="translate(762.926 777.449)"/><path class="cls-1" d="M-565.047-662.757A37.155,37.155,0,0,1-602.16-699.87a37.155,37.155,0,0,1,37.113-37.113,37.155,37.155,0,0,1,37.113,37.113A37.155,37.155,0,0,1-565.047-662.757Zm0-63.559a26.475,26.475,0,0,0-26.445,26.446,26.475,26.475,0,0,0,26.445,26.446A26.475,26.475,0,0,0-538.6-699.87,26.475,26.475,0,0,0-565.047-726.315Z" transform="translate(762.926 777.449)"/><path class="cls-1" d="M-463.744-382.546a37.155,37.155,0,0,1-37.113-37.113,37.155,37.155,0,0,1,37.113-37.113,37.155,37.155,0,0,1,37.113,37.113A37.155,37.155,0,0,1-463.744-382.546Zm0-63.559a26.475,26.475,0,0,0-26.445,26.446,26.475,26.475,0,0,0,26.445,26.446A26.475,26.475,0,0,0-437.3-419.659,26.475,26.475,0,0,0-463.744-446.1Z" transform="translate(762.926 777.449)"/><path class="cls-1" d="M-296.178-490.651a37.155,37.155,0,0,1-37.113-37.113,37.155,37.155,0,0,1,37.113-37.113,37.155,37.155,0,0,1,37.113,37.113A37.155,37.155,0,0,1-296.178-490.651Zm0-63.559a26.475,26.475,0,0,0-26.445,26.446,26.475,26.475,0,0,0,26.445,26.446,26.475,26.475,0,0,0,26.445-26.446A26.475,26.475,0,0,0-296.178-554.21Z" transform="translate(762.926 777.449)"/><path class="cls-1" d="M-609.692-512.678a37.155,37.155,0,0,1-37.113-37.113A37.155,37.155,0,0,1-609.692-586.9a37.155,37.155,0,0,1,37.113,37.113A37.155,37.155,0,0,1-609.692-512.678Zm0-63.559a26.475,26.475,0,0,0-26.445,26.446,26.475,26.475,0,0,0,26.445,26.446,26.475,26.475,0,0,0,26.445-26.446A26.475,26.475,0,0,0-609.692-576.236Z" transform="translate(762.926 777.449)"/><ellipse class="cls-1" cx="315.541" cy="172.082" rx="76.099" ry="74.119"/><path class="cls-1" d="M-85.376,209.6a37.155,37.155,0,0,1-37.113-37.113,37.155,37.155,0,0,1,37.113-37.113,37.155,37.155,0,0,1,37.113,37.113A37.155,37.155,0,0,1-85.376,209.6Zm0-63.559a26.475,26.475,0,0,0-26.445,26.446,26.475,26.475,0,0,0,26.445,26.446,26.475,26.475,0,0,0,26.445-26.446A26.475,26.475,0,0,0-85.376,146.04Z" transform="translate(762.926 777.449)"/><path class="cls-1" d="M-198.587,284.217A37.155,37.155,0,0,1-235.7,247.1a37.155,37.155,0,0,1,37.113-37.113A37.155,37.155,0,0,1-161.474,247.1,37.155,37.155,0,0,1-198.587,284.217Zm0-63.559A26.475,26.475,0,0,0-225.032,247.1a26.475,26.475,0,0,0,26.445,26.446A26.475,26.475,0,0,0-172.142,247.1,26.475,26.475,0,0,0-198.587,220.658Z" transform="translate(762.926 777.449)"/><path class="cls-1" d="M-311.693,201.112A37.155,37.155,0,0,1-348.806,164a37.155,37.155,0,0,1,37.113-37.113A37.155,37.155,0,0,1-274.579,164,37.155,37.155,0,0,1-311.693,201.112Zm0-63.559A26.475,26.475,0,0,0-338.138,164a26.475,26.475,0,0,0,26.445,26.446A26.475,26.475,0,0,0-285.247,164,26.475,26.475,0,0,0-311.693,137.553Z" transform="translate(762.926 777.449)"/><path class="cls-1" d="M-210.39,481.323A37.155,37.155,0,0,1-247.5,444.21,37.155,37.155,0,0,1-210.39,407.1a37.155,37.155,0,0,1,37.113,37.113A37.155,37.155,0,0,1-210.39,481.323Zm0-63.559a26.475,26.475,0,0,0-26.445,26.446,26.475,26.475,0,0,0,26.445,26.446,26.475,26.475,0,0,0,26.445-26.446A26.475,26.475,0,0,0-210.39,417.764Z" transform="translate(762.926 777.449)"/><path class="cls-1" d="M-42.824,373.217A37.155,37.155,0,0,1-79.937,336.1a37.155,37.155,0,0,1,37.113-37.113A37.155,37.155,0,0,1-5.71,336.1,37.155,37.155,0,0,1-42.824,373.217Zm0-63.559A26.475,26.475,0,0,0-69.269,336.1,26.475,26.475,0,0,0-42.824,362.55,26.475,26.475,0,0,0-16.379,336.1,26.475,26.475,0,0,0-42.824,309.659Z" transform="translate(762.926 777.449)"/><path class="cls-1" d="M-356.337,351.191a37.155,37.155,0,0,1-37.113-37.113,37.155,37.155,0,0,1,37.113-37.113,37.155,37.155,0,0,1,37.113,37.113A37.155,37.155,0,0,1-356.337,351.191Zm0-63.559a26.475,26.475,0,0,0-26.445,26.446,26.475,26.475,0,0,0,26.445,26.446,26.475,26.475,0,0,0,26.445-26.446A26.475,26.475,0,0,0-356.337,287.632Z" transform="translate(762.926 777.449)"/><ellipse class="cls-1" cx="568.895" cy="1035.951" rx="76.099" ry="74.119"/><path class="cls-1" d="M-454.852-138.764a37.155,37.155,0,0,1-37.113-37.113,37.155,37.155,0,0,1,37.113-37.113,37.155,37.155,0,0,1,37.113,37.113A37.155,37.155,0,0,1-454.852-138.764Zm0-63.559A26.475,26.475,0,0,0-481.3-175.877a26.475,26.475,0,0,0,26.445,26.446,26.475,26.475,0,0,0,26.445-26.446A26.475,26.475,0,0,0-454.852-202.322Z" transform="translate(762.926 777.449)"/><path class="cls-1" d="M-568.062-64.145a37.155,37.155,0,0,1-37.113-37.113,37.155,37.155,0,0,1,37.113-37.113,37.155,37.155,0,0,1,37.113,37.113A37.155,37.155,0,0,1-568.062-64.145Zm0-63.559a26.475,26.475,0,0,0-26.445,26.446,26.475,26.475,0,0,0,26.445,26.446,26.475,26.475,0,0,0,26.445-26.446A26.475,26.475,0,0,0-568.062-127.7Z" transform="translate(762.926 777.449)"/><path class="cls-1" d="M-681.168-147.251a37.155,37.155,0,0,1-37.113-37.113,37.155,37.155,0,0,1,37.113-37.113,37.155,37.155,0,0,1,37.113,37.113A37.155,37.155,0,0,1-681.168-147.251Zm0-63.559a26.475,26.475,0,0,0-26.445,26.446,26.475,26.475,0,0,0,26.445,26.446,26.475,26.475,0,0,0,26.445-26.446A26.475,26.475,0,0,0-681.168-210.809Z" transform="translate(762.926 777.449)"/><path class="cls-1" d="M-579.865,132.96a37.155,37.155,0,0,1-37.113-37.113,37.155,37.155,0,0,1,37.113-37.113,37.155,37.155,0,0,1,37.113,37.113A37.155,37.155,0,0,1-579.865,132.96Zm0-63.559A26.475,26.475,0,0,0-606.31,95.847a26.475,26.475,0,0,0,26.445,26.446A26.475,26.475,0,0,0-553.42,95.847,26.475,26.475,0,0,0-579.865,69.4Z" transform="translate(762.926 777.449)"/><path class="cls-1" d="M-412.3,24.855a37.155,37.155,0,0,1-37.113-37.113A37.155,37.155,0,0,1-412.3-49.371a37.155,37.155,0,0,1,37.113,37.113A37.155,37.155,0,0,1-412.3,24.855Zm0-63.559a26.475,26.475,0,0,0-26.445,26.446A26.475,26.475,0,0,0-412.3,14.188a26.475,26.475,0,0,0,26.445-26.446A26.475,26.475,0,0,0-412.3-38.7Z" transform="translate(762.926 777.449)"/><path class="cls-1" d="M-725.813,2.828a37.155,37.155,0,0,1-37.113-37.113A37.155,37.155,0,0,1-725.813-71.4,37.155,37.155,0,0,1-688.7-34.284,37.155,37.155,0,0,1-725.813,2.828Zm0-63.559a26.475,26.475,0,0,0-26.445,26.446A26.475,26.475,0,0,0-725.813-7.839a26.475,26.475,0,0,0,26.445-26.446A26.475,26.475,0,0,0-725.813-60.73Z" transform="translate(762.926 777.449)"/><ellipse class="cls-1" cx="199.42" cy="687.588" rx="76.099" ry="74.119"/></svg>