<svg id="Layer_1" data-name="Layer 1" xmlns="http://www.w3.org/2000/svg" viewBox="0 0 387.74 354.437"><defs><style>.cls-1,.cls-2{fill:#fff;}.cls-2{opacity:0.3;}</style></defs><title>Untitled-1</title><path class="cls-1" d="M352.716,112.831a37.113,37.113,0,1,1,37.113-37.113A37.155,37.155,0,0,1,352.716,112.831Zm0-63.559a26.446,26.446,0,1,0,26.445,26.446A26.475,26.475,0,0,0,352.716,49.273Z" transform="translate(-44.641 -30.119)"/><path class="cls-1" d="M239.505,187.45a37.113,37.113,0,1,1,37.113-37.113A37.155,37.155,0,0,1,239.505,187.45Zm0-63.559a26.446,26.446,0,1,0,26.445,26.446A26.475,26.475,0,0,0,239.505,123.891Z" transform="translate(-44.641 -30.119)"/><path class="cls-1" d="M126.4,104.344a37.113,37.113,0,1,1,37.113-37.113A37.155,37.155,0,0,1,126.4,104.344Zm0-63.559a26.446,26.446,0,1,0,26.445,26.446A26.475,26.475,0,0,0,126.4,40.786Z" transform="translate(-44.641 -30.119)"/><path class="cls-1" d="M227.7,384.555a37.113,37.113,0,1,1,37.113-37.113A37.155,37.155,0,0,1,227.7,384.555Zm0-63.559a26.446,26.446,0,1,0,26.445,26.446A26.475,26.475,0,0,0,227.7,321Z" transform="translate(-44.641 -30.119)"/><path class="cls-1" d="M395.268,276.45a37.113,37.113,0,1,1,37.113-37.113A37.155,37.155,0,0,1,395.268,276.45Zm0-63.559a26.446,26.446,0,1,0,26.445,26.446A26.475,26.475,0,0,0,395.268,212.891Z" transform="translate(-44.641 -30.119)"/><path class="cls-1" d="M81.755,254.424a37.113,37.113,0,1,1,37.113-37.113A37.155,37.155,0,0,1,81.755,254.424Zm0-63.559A26.446,26.446,0,1,0,108.2,217.311,26.475,26.475,0,0,0,81.755,190.865Z" transform="translate(-44.641 -30.119)"/><ellipse class="cls-2" cx="199.42" cy="131.616" rx="76.099" ry="74.119"/></svg>