<svg id="Layer_1" data-name="Layer 1" xmlns="http://www.w3.org/2000/svg" viewBox="0 0 302 358.5"><defs><style>.cls-1{fill:#fff;}</style></defs><title>Untitled-1</title><polygon class="cls-1" points="259 35.5 259 44.5 293 44.5 293 349.5 52 349.5 52 322.5 43 322.5 43 358.5 302 358.5 302 35.5 259 35.5"/><path class="cls-1" d="M335.5,353H76V30.5H335.5V353ZM85,344H326.5V39.5H85V344Z" transform="translate(-76 -30.5)"/><rect class="cls-1" x="58.25" y="224.333" width="143" height="10.461"/><rect class="cls-1" x="58.25" y="250.5" width="143" height="10.461"/><rect class="cls-1" x="58.25" y="198.167" width="143" height="10.461"/><rect class="cls-1" x="58.25" y="172" width="143" height="10.461"/><polygon class="cls-1" points="129.75 45.641 141.587 69.624 168.055 73.47 148.902 92.139 153.424 118.5 129.75 106.054 106.076 118.5 110.598 92.139 91.445 73.47 117.913 69.624 129.75 45.641"/></svg>