<svg id="Layer_1" data-name="Layer 1" xmlns="http://www.w3.org/2000/svg" viewBox="0 0 473.911 350.068"><defs><style>.cls-1{fill:#fff;}</style></defs><title>wilson-logo-gray</title><path class="cls-1" d="M271.688,401.043c-29.8-.305-51.779-19.295-56.736-44.176-3.52-17.669,2.981-32.435,11.688-47.054,14.537-24.407,28.547-49.126,42.814-73.694,12.6-21.694,25.277-43.34,37.857-65.044,14.081-24.294,27.9-48.744,42.219-72.893,6.412-10.811,11.36-22.619,20.5-31.7,18.84-18.729,50.674-20.682,71.667-4.254,21.746,17.016,28.673,47.574,11.661,75.091-14.846,24.014-28.448,48.8-42.622,73.225q-18.884,32.549-37.81,65.074-21.122,36.439-42.182,72.913c-5.161,8.915-10.137,17.947-15.586,26.683C304.191,392.786,287.694,400.429,271.688,401.043Z" transform="translate(11.034 -50.975)"/><path class="cls-1" d="M296.01,105.671c0.6,11.987-4.084,22.276-9.974,32.318C270.32,164.784,254.806,191.7,239.2,218.558q-32.045,55.156-64.1,110.306-13.26,22.845-26.4,45.761c-17.087,29.669-59.9,35.307-84.316,11.427-11.65-11.393-17.342-25.046-17.257-41.005,0.063-11.752,4.977-22.132,10.876-32.152,15.508-26.338,30.777-52.817,46.13-79.246q32.418-55.805,64.818-111.621c8.924-15.373,17.347-31.062,26.856-46.063C207.556,57.439,225.48,49.183,246.864,51.3c24.358,2.41,41.925,17.677,48.173,42.5C296.033,97.756,295.938,101.694,296.01,105.671Z" transform="translate(11.034 -50.975)"/><path class="cls-1" d="M44.448,124.977c28.955-1.153,54.329,25.6,53.791,54.909-0.525,28.592-24.292,54.417-55.77,53.941-29.005-.438-54.17-24.3-53.49-56.676C-10.421,148.622,14.471,123.434,44.448,124.977Z" transform="translate(11.034 -50.975)"/></svg>